<svg xmlns="http://www.w3.org/2000/svg" viewBox="0 0 1200 900"><rect width="1200" height="900" fill="#F7F5F1"/><g transform="translate(80 80)"><rect width="480" height="315" rx="30" fill="#214A38"/><circle cx="120" cy="105" r="52" fill="#C9A97A"/><path d="M210 82h190M210 126h130M82 230h330" stroke="#fff" stroke-width="14" stroke-linecap="round"/></g><g transform="translate(640 80)"><rect width="480" height="315" rx="30" fill="#171717"/><path d="M75 230L190 80l90 110 72-72 70 112" fill="none" stroke="#fff" stroke-width="12"/><circle cx="390" cy="85" r="38" fill="none" stroke="#B66A2C" stroke-width="8"/></g><g transform="translate(80 485)"><rect width="1040" height="300" rx="30" fill="#D7D3CC"/><circle cx="160" cy="150" r="94" fill="#B66A2C"/><rect x="310" y="70" width="650" height="24" rx="12" fill="#171717"/><rect x="310" y="126" width="510" height="18" rx="9" fill="#5F666D"/><rect x="310" y="180" width="590" height="18" rx="9" fill="#5F666D"/><rect x="310" y="232" width="280" height="18" rx="9" fill="#214A38"/></g></svg>