<svg xmlns="http://www.w3.org/2000/svg" viewBox="0 0 1200 900"><defs><linearGradient id="g" x1="0" y1="0" x2="1" y2="1"><stop stop-color="#171717"/><stop offset="1" stop-color="#214A38"/></linearGradient></defs><rect width="1200" height="900" fill="url(#g)"/><g fill="none" stroke="#fff" opacity=".12"><path d="M0 150h1200M0 300h1200M0 450h1200M0 600h1200M0 750h1200"/><path d="M150 0v900M300 0v900M450 0v900M600 0v900M750 0v900M900 0v900M1050 0v900"/></g><circle cx="185" cy="175" r="125" fill="#B66A2C" opacity=".42"/><circle cx="1040" cy="740" r="170" fill="#C9A97A" opacity=".22"/><g fill="#fff" font-family="Georgia,serif"><text x="85" y="190" font-size="92">Ideas become</text><text x="85" y="292" font-size="92" font-style="italic">believable here.</text></g><g fill="#D7D3CC" font-family="Arial" font-size="24" letter-spacing="6"><text x="90" y="735">STRATEGY</text><text x="430" y="735">IDENTITY</text><text x="765" y="735">EXPERIENCE</text></g><path d="M90 795C300 650 430 825 610 690S930 555 1110 620" fill="none" stroke="#B66A2C" stroke-width="6"/></svg>