<svg xmlns="http://www.w3.org/2000/svg" viewBox="0 0 1100 680">
<defs><linearGradient id="bg" x1="0" y1="0" x2="1" y2="1"><stop stop-color="#214A38"/><stop offset="1" stop-color="#111"/></linearGradient></defs>
<rect width="1100" height="680" rx="40" fill="url(#bg)"/>
<rect x="70" y="70" width="960" height="540" rx="26" fill="#fff"/>
<rect x="70" y="70" width="230" height="540" rx="26" fill="#171717"/>
<circle cx="185" cy="150" r="45" fill="#C9A97A"/><rect x="125" y="225" width="120" height="12" rx="6" fill="#5F666D"/>
<rect x="125" y="270" width="90" height="10" rx="5" fill="#5F666D"/><rect x="125" y="310" width="110" height="10" rx="5" fill="#5F666D"/>
<g fill="#eee"><rect x="350" y="120" width="280" height="125" rx="18"/><rect x="660" y="120" width="310" height="125" rx="18"/><rect x="350" y="285" width="620" height="250" rx="18"/></g>
<g fill="#B66A2C"><rect x="380" y="155" width="160" height="12" rx="6"/><rect x="690" y="155" width="180" height="12" rx="6"/></g>
</svg>