<svg xmlns="http://www.w3.org/2000/svg" viewBox="0 0 1200 700">
<rect width="1200" height="700" rx="42" fill="#171717"/>
<g fill="none" stroke="#5F666D" stroke-width="2" opacity=".65">
<ellipse cx="600" cy="350" rx="470" ry="220"/><ellipse cx="600" cy="350" rx="470" ry="130"/>
<path d="M130 350h940M600 130v440M390 145c-110 120-110 290 0 410M810 145c110 120 110 290 0 410"/>
</g>
<g stroke="#B66A2C" stroke-width="3" fill="none" opacity=".9">
<path d="M280 400Q510 120 760 340T1010 255"/><path d="M280 400Q450 580 710 420T1010 255"/>
</g>
<g fill="#fff"><circle cx="280" cy="400" r="11"/><circle cx="760" cy="340" r="9"/><circle cx="1010" cy="255" r="11"/><circle cx="710" cy="420" r="8"/></g>
<text x="600" y="635" text-anchor="middle" fill="#fff" font-family="Inter,Arial" font-size="24" letter-spacing="7">DURANGO ROOTS • GLOBAL REACH</text>
</svg>